<svg xmlns="http://www.w3.org/2000/svg" xmlns:xlink="http://www.w3.org/1999/xlink" width="500" zoomAndPan="magnify" viewBox="0 0 375 374.999991" height="500" preserveAspectRatio="xMidYMid meet" version="1.0"><defs><clipPath id="76cb58de43"><path d="M 1 68 L 374 68 L 374 307.5 L 1 307.5 Z M 1 68 " clip-rule="nonzero"/></clipPath></defs><g clip-path="url(#76cb58de43)"><path fill="#ffffff" d="M 244.066406 68.808594 L 237.507812 92.027344 L 250.109375 95.5625 L 250.625 101.164062 L 239.054688 102.640625 L 239.496094 107.210938 L 231.464844 107.726562 C 225.195312 109.714844 227.28125 120.472656 235.960938 119.8125 L 245.613281 118.78125 C 244.003906 123.582031 242.65625 128.644531 243.550781 135.953125 C 245.347656 145.519531 247.671875 155.71875 253.648438 170.300781 C 255.128906 176.230469 254.136719 181.339844 253.132812 186.441406 L 242.078125 219.757812 C 238.640625 230.261719 220.792969 229.605469 191.070312 219.757812 L 192.105469 211.132812 C 197.730469 209.808594 199.476562 206.261719 199.179688 201.550781 C 196 191.09375 191.707031 181.75 185.988281 173.839844 C 180.085938 165.917969 173.691406 163.445312 164.316406 164.699219 C 145.699219 166.867188 127.425781 167.761719 111.324219 160.71875 C 106.367188 158.730469 103.675781 160.519531 101.226562 162.707031 L 94.664062 162.191406 L 92.675781 154.160156 C 64.421875 150.398438 50.34375 151.90625 51.769531 159.171875 C 38.011719 157.316406 22.191406 154.21875 16.464844 157.179688 C 11.777344 158.632812 11.566406 161.574219 11.894531 164.699219 L 26.488281 172.804688 L 20.445312 179.367188 L 34.597656 189.464844 L 19.488281 202.066406 L 23.464844 208.109375 L 1.796875 241.941406 L 5.851562 245.996094 L 23.980469 225.800781 L 25.308594 226.980469 C 20.613281 234.9375 17.9375 244.203125 17.9375 254.105469 C 17.9375 283.640625 41.914062 307.542969 71.449219 307.542969 C 90.925781 307.542969 108.007812 297.148438 117.367188 281.597656 L 165.351562 281.304688 L 169.847656 276.292969 L 232.941406 277.765625 C 248.46875 276.101562 264.871094 276.378906 262.277344 234.351562 C 271.78125 219.417969 282.28125 211.390625 293.378906 207.597656 C 277.199219 216.804688 266.257812 234.171875 266.257812 254.105469 C 266.257812 283.640625 290.234375 307.542969 319.765625 307.542969 C 349.296875 307.542969 373.277344 283.640625 373.277344 254.105469 C 373.277344 238.730469 366.792969 224.878906 356.398438 215.113281 C 357.734375 211.914062 359.851562 209.265625 354.113281 201.109375 C 345.324219 193.453125 333.746094 186.066406 299.050781 180.914062 C 293.316406 158.25 284.503906 137.898438 265.296875 125.34375 L 265.738281 119.816406 C 277.402344 120.925781 282.257812 115.75 282.910156 106.695312 C 282.722656 100.316406 285.195312 93.636719 277.898438 88.046875 C 269.152344 84.710938 260.40625 84.589844 251.660156 85.46875 C 251.515625 67.394531 247.445312 69.925781 244.070312 68.808594 Z M 71.445312 213.714844 C 73.792969 213.714844 76.0625 213.917969 78.300781 214.304688 L 69.675781 232.730469 C 68.730469 232.808594 67.785156 232.902344 66.875 233.097656 L 51.765625 223.8125 L 49.554688 220.199219 C 55.871094 216.109375 63.371094 213.714844 71.445312 213.714844 Z M 319.761719 213.714844 C 342.050781 213.714844 360.152344 231.816406 360.152344 254.105469 C 360.152344 276.394531 342.050781 294.421875 319.761719 294.421875 C 297.472656 294.421875 279.371094 276.394531 279.371094 254.105469 C 279.371094 231.816406 297.472656 213.714844 319.761719 213.714844 Z M 319.761719 232.582031 C 307.921875 232.582031 298.3125 242.261719 298.3125 254.105469 C 298.3125 265.945312 307.921875 275.554688 319.761719 275.554688 C 331.601562 275.554688 341.210938 265.945312 341.210938 254.105469 C 341.207031 242.261719 331.601562 232.582031 319.761719 232.582031 Z M 35.84375 235.089844 L 52.132812 244.816406 C 50.777344 247.640625 49.996094 250.773438 49.996094 254.105469 C 49.996094 265.945312 59.605469 275.554688 71.445312 275.554688 C 74.179688 275.554688 76.78125 275.011719 79.183594 274.078125 L 85.597656 281.816406 L 100.78125 281.746094 C 93.414062 289.535156 83.019531 294.421875 71.445312 294.421875 C 49.15625 294.421875 31.054688 276.394531 31.054688 254.105469 C 31.054688 247.222656 32.800781 240.765625 35.84375 235.089844 Z M 35.84375 235.089844 " fill-opacity="1" fill-rule="nonzero"/></g></svg>